<mxfile host="65bd71144e">
    <diagram id="x-srWhqyRwXltMXBsB6Q" name="Page-1">
        <mxGraphModel dx="1948" dy="850" grid="1" gridSize="10" guides="1" tooltips="1" connect="1" arrows="1" fold="1" page="1" pageScale="1" pageWidth="1654" pageHeight="1169" math="0" shadow="0">
            <root>
                <mxCell id="0"/>
                <mxCell id="1" parent="0"/>
                <mxCell id="3" value="" style="rounded=1;whiteSpace=wrap;html=1;" parent="1" vertex="1">
                    <mxGeometry x="598.5" y="350" width="458" height="520" as="geometry"/>
                </mxCell>
                <mxCell id="4" value="" style="rounded=0;whiteSpace=wrap;html=1;" parent="1" vertex="1">
                    <mxGeometry x="667" y="510" width="320" height="60" as="geometry"/>
                </mxCell>
                <mxCell id="6" value="Send" style="rounded=1;whiteSpace=wrap;html=1;fontSize=25;labelBorderColor=none;" parent="1" vertex="1">
                    <mxGeometry x="667.5" y="750" width="120" height="60" as="geometry"/>
                </mxCell>
                <mxCell id="7" value="Email" style="text;html=1;strokeColor=none;fillColor=none;align=right;verticalAlign=middle;whiteSpace=wrap;rounded=0;fontSize=26;gradientColor=none;labelPosition=left;verticalLabelPosition=middle;" parent="1" vertex="1">
                    <mxGeometry x="740" y="470" width="220" height="30" as="geometry"/>
                </mxCell>
                <mxCell id="10" value="LOGIN" style="text;html=1;strokeColor=none;fillColor=none;align=center;verticalAlign=middle;whiteSpace=wrap;rounded=0;fontSize=33;fontStyle=1" parent="1" vertex="1">
                    <mxGeometry x="716" y="400" width="223" height="30" as="geometry"/>
                </mxCell>
                <mxCell id="11" value="Register" style="rounded=1;whiteSpace=wrap;html=1;fontSize=25;labelBorderColor=none;" parent="1" vertex="1">
                    <mxGeometry x="867.5" y="750" width="120" height="60" as="geometry"/>
                </mxCell>
                <mxCell id="12" value="" style="rounded=0;whiteSpace=wrap;html=1;" parent="1" vertex="1">
                    <mxGeometry x="667" y="640" width="320" height="60" as="geometry"/>
                </mxCell>
                <mxCell id="13" value="Password" style="text;html=1;strokeColor=none;fillColor=none;align=right;verticalAlign=middle;whiteSpace=wrap;rounded=0;fontSize=26;gradientColor=none;labelPosition=left;verticalLabelPosition=middle;" parent="1" vertex="1">
                    <mxGeometry x="787" y="600" width="220" height="30" as="geometry"/>
                </mxCell>
            </root>
        </mxGraphModel>
    </diagram>
</mxfile>